<?xml version="1.0" standalone="no"?><!DOCTYPE svg PUBLIC "-//W3C//DTD SVG 1.1//EN" "http://www.w3.org/Graphics/SVG/1.1/DTD/svg11.dtd"><svg class="icon" width="200px" height="200.00px" viewBox="0 0 1024 1024" version="1.1" xmlns="http://www.w3.org/2000/svg"><path fill="#3fcccb" d="M201.129 454.058l0.001 0.003c0-14.243 1.157-28.183 2.849-41.961h-106.812c-16.547 0-30.004 13.213-30.004 29.5 0 16.29 13.457 29.498 30.004 29.498h104.334c-0.247-5.613-0.372-11.246-0.372-17.040zM274.926 244.911v0.001c12.503-15.499 26.289-29.903 41.355-42.793l-74.66-73.343c-11.719-11.549-30.746-11.549-42.511 0-11.723 11.51-11.723 30.188 0 41.697l75.817 74.436zM594.261 932.8h-153.012c-15.808 0-28.682 12.602-28.682 28.125 0 15.599 12.879 28.202 28.682 28.202h153.012c15.808 0 28.682-12.599 28.682-28.202 0-15.521-12.879-28.125-28.682-28.125zM760.63 244.87v0.003l75.734-74.399c11.761-11.51 11.761-30.188 0-41.697-11.682-11.549-30.746-11.549-42.513 0l-74.703 73.343c15.109 12.883 28.896 27.273 41.482 42.75zM517.739 150.153h0.875c9.861 0 19.601 0.607 29.175 1.58v-99.883c0-16.288-13.456-29.498-30.046-29.498s-30.004 13.209-30.004 29.498v99.862c9.574-0.951 19.313-1.561 29.177-1.561h0.823zM199.113 712.691l-0.004-0.004c-11.723 11.549-11.723 30.188 0 41.739 11.763 11.51 30.79 11.51 42.511 0l55.018-54.053c-12.421-13.696-25.341-28.931-37.558-46.475l-59.965 58.794zM938.301 412.106v-0.003h-106.769c1.731 13.777 2.849 27.718 2.849 41.961 0 5.792-0.125 11.427-0.33 17.038h104.249c16.596 0 30.006-13.209 30.006-29.498 0.001-16.288-13.409-29.498-30.005-29.498zM776.437 653.895c-12.217 17.585-25.133 32.778-37.554 46.514l54.97 54.017c11.763 11.51 30.829 11.51 42.513 0 11.761-11.549 11.761-30.188 0-41.739l-59.929-58.793zM792.694 454.054l0.001 0.005c0.042-61.168-20.715-117.735-55.675-163.039-30.663-39.791-72.31-70.993-120.554-89.309l0.247-1.299-20.594-5.938c-16.017-4.558-32.525-7.721-49.363-9.422l-2.393-0.262h-0.082l-0.085-0.020c-8.251-0.769-16.839-1.36-25.794-1.36h-1.318c-8.958 0-17.543 0.592-25.797 1.36l-0.125 0.020-2.475 0.262c-16.815 1.7-33.328 4.863-49.301 9.422l-19.933 5.712 0.206 1.299c-48.492 18.293-90.384 49.579-121.216 89.53-34.914 45.302-55.675 101.869-55.675 163.039 0 43.863 7.719 79.926 19.729 109.771 18.034 44.756 45.563 74.986 67.685 97.918 11.060 11.428 20.802 21.194 27.403 29.538 6.769 8.388 10.028 14.873 10.975 20.018 4.827 25.043 5.324 56.651 5.324 64.672v2.31c0 36.225 29.882 65.483 66.737 65.523h154.25c36.899-0.042 66.737-29.339 66.737-65.523v-2.228c-0.042-7.942 0.496-39.63 5.326-64.714 0.658-3.483 2.227-7.457 5.323-12.318 5.283-8.47 15.273-19.005 27.652-31.69 18.49-19.087 42.013-43.152 60.71-77.374 18.742-34.178 32.155-78.329 32.071-135.905zM729.678 547.003l-0.004-0.005c-14.735 36.49-36.858 61.187-58.193 83.31-10.65 11.063-21.092 21.356-30.212 32.745-8.995 11.226-17.041 24.070-20.138 39.831-5.82 30.754-6.069 63.741-6.103 73.182v2.227c-0.042 10.942-8.997 19.774-20.142 19.774h-55.996v-209.782l74.337-74.337c9.054-9.043 9.054-23.724 0-32.778s-23.724-9.054-32.778 0l-64.735 64.727-64.743-64.727c-9.054-9.054-23.724-9.054-32.778 0s-9.054 23.734 0 32.778l74.337 74.327v209.793h-51.893c-5.653 0-10.566-2.188-14.279-5.792-3.67-3.649-5.86-8.432-5.86-13.979v-2.308c-0.039-9.518-0.331-42.425-6.149-73.099-1.979-10.413-6.315-19.735-11.555-28.001-9.285-14.465-21.17-26.377-33.433-39.142-18.526-18.962-38.134-39.447-53.406-67.39-15.23-27.961-26.535-63.492-26.58-114.288 0.042-50.955 17.171-97.717 46.225-135.422 29.055-37.664 69.917-66.113 117.086-79.967l5.82-1.74c11.39-2.877 23.072-5.165 35.101-6.405h0.081l2.23-0.243c7.057-0.666 13.904-1.094 20.676-1.132l1.196 0.122 1.198-0.081c6.725 0 13.616 0.446 20.635 1.094h-0.086l2.314 0.243h0.039c12.009 1.235 23.692 3.483 35.039 6.403l5.901 1.742c47.171 13.855 88.029 42.304 117.086 79.967 29.009 37.703 46.179 84.469 46.179 135.422 0.007 38.692-6.593 68.559-16.415 92.931zM594.261 861.726h-153.012c-15.808 0-28.682 12.563-28.682 28.204 0 15.479 12.879 28.125 28.682 28.125h153.012c15.808 0 28.682-12.645 28.682-28.125 0-15.644-12.879-28.204-28.682-28.204zM776.436 653.893h0.001z" /></svg>